<svg width="558" height="500" viewBox="0 0 558 500" fill="none" xmlns="http://www.w3.org/2000/svg">
<rect x="118" y="452" width="321" height="28" rx="14" fill="black"/>
<rect x="118" y="398" width="321" height="28" rx="14" fill="black"/>
<rect x="537.365" y="170.034" width="274.089" height="28" rx="14" transform="rotate(111 537.365 170.034)" fill="black"/>
<rect x="118.225" y="425.918" width="274.089" height="28" rx="14" transform="rotate(-111 118.225 425.918)" fill="black"/>
<rect x="192.995" y="281.74" width="198.781" height="28" rx="14" transform="rotate(-150 192.995 281.74)" fill="black"/>
<rect x="296.639" y="39.4562" width="261.788" height="28" rx="14" transform="rotate(113 296.639 39.4562)" fill="black"/>
<rect x="537.257" y="185.407" width="183.379" height="28" rx="14" transform="rotate(150 537.257 185.407)" fill="black"/>
<rect x="372.382" y="276.82" width="267.69" height="28" rx="14" transform="rotate(-113.511 372.382 276.82)" fill="black"/>
</svg>
